<?xml version="1.0" encoding="iso-8859-1"?>
<!-- Generator: Adobe Illustrator 19.0.0, SVG Export Plug-In . SVG Version: 6.00 Build 0)  -->
<svg version="1.1" id="Capa_1" xmlns="http://www.w3.org/2000/svg" xmlns:xlink="http://www.w3.org/1999/xlink" x="0px" y="0px"
	 viewBox="0 0 512 512" style="enable-background:new 0 0 512 512;" xml:space="preserve">
<g>
	<g>
		<path d="M256,0C116.519,0,0,116.134,0,256c0,139.481,116.134,256,256,256c139.481,0,256-116.134,256-256
			C512,116.519,395.866,0,256,0z M96.901,415.099C11.255,329.454,7.845,197.225,86.639,107.852l73.931,73.932
			c-15.544,2.196-30.526,9.254-42.456,21.184c-5.858,5.858-5.858,15.355,0,21.213c5.857,5.858,15.355,5.858,21.213,0
			c12.992-12.992,32.014-16.353,48.138-10.104l-32.227,32.228c-1.949,1.949-3.758,3.985-5.448,6.086
			c-25.318-1.081-50.487,8.324-68.82,26.083l-10.416,10.091c-5.95,5.764-6.101,15.261-0.336,21.21
			c5.764,5.95,15.259,6.101,21.21,0.336l10.416-10.091c9.158-8.871,20.839-14.644,33.218-16.782
			c-5.269,24.143,1.442,50.398,20.175,69.132c14.621,14.622,33.827,21.932,53.033,21.932c5.351,0,10.699-0.589,15.951-1.724
			c-2.221,15.937-9.54,30.807-21.254,42.522c-5.858,5.858-5.858,15.355,0,21.213c5.857,5.858,15.356,5.858,21.213,0
			c20.917-20.917,31.836-49.011,30.686-78.224c2.225-1.767,4.381-3.663,6.437-5.719l33.79-33.79
			c9.778,17.175,7.361,39.459-7.273,54.094c-5.858,5.858-5.858,15.355,0,21.213c5.857,5.858,15.356,5.858,21.213,0
			c11.93-11.93,18.988-26.912,21.184-42.456l73.931,73.931C314.775,504.154,182.547,500.744,96.901,415.099z M303.725,246.299
			c0.002,0.001,0.003,0.003,0.005,0.005c0.001,0.001,0.002,0.001,0.002,0.002c5.846,5.849,5.845,15.363-0.002,21.211l-7.5,7.5
			l-63.64-63.64l7.5-7.5c2.833-2.833,6.6-4.394,10.607-4.394c4.006,0,7.773,1.561,10.606,4.394L303.725,246.299z M293.124,193.27
			l10.607-10.607c5.861-5.861,15.348-5.862,21.212,0.001c5.848,5.849,5.848,15.365,0,21.213l-10.606,10.606L293.124,193.27z
			 M253.803,275.016l21.214,21.213l-34.927,34.927c-13.827,13.827-34.485,16.749-51.209,8.782L253.803,275.016z M167.668,318.725
			c-7.967-16.724-5.045-37.381,8.782-51.208l34.927-34.927l21.213,21.213L167.668,318.725z M425.361,404.149l-107.918-107.92
			l7.5-7.5c1.597-1.597,3.044-3.286,4.35-5.048c23.765,3.641,47.401-4.276,64.292-21.167l16.21-16.21
			c5.858-5.858,5.858-15.355,0-21.213c-5.857-5.858-15.355-5.858-21.213,0l-16.21,16.21c-9.254,9.253-21.721,13.865-34.343,13.146
			c-0.316-5.811-1.752-11.569-4.304-16.925l12.431-12.432c11.743-11.743,15.614-28.411,11.638-43.414
			c19.11-3.054,38.924,0.314,56.044,9.8c7.251,4.018,16.378,1.391,20.391-5.851c4.015-7.246,1.396-16.375-5.851-20.391
			c-21.855-12.11-46.975-16.81-71.452-13.737c4.102-23.865,0.018-48.702-11.845-70.111c-4.015-7.246-13.144-9.867-20.391-5.851
			c-7.246,4.015-9.866,13.145-5.851,20.391c9.135,16.487,11.86,35.799,7.819,54.056c-15.187-4.3-32.139-0.535-44.142,11.468
			l-12.412,12.412c-5.251-2.514-10.973-3.984-16.911-4.306c-0.737-12.612,3.863-25.071,13.113-34.323l16.21-16.21
			c5.858-5.858,5.858-15.355,0-21.213c-5.857-5.858-15.355-5.858-21.213,0l-16.21,16.21c-17.142,17.143-24.734,40.894-21.134,64.257
			c-1.784,1.323-3.483,2.787-5.082,4.386l-7.5,7.5L107.852,86.639C150.677,48.884,203.334,29.99,256,29.99
			c57.246,0,114.492,22.304,159.099,66.911C500.745,182.547,504.154,314.775,425.361,404.149z"/>
	</g>
</g>
<g>
</g>
<g>
</g>
<g>
</g>
<g>
</g>
<g>
</g>
<g>
</g>
<g>
</g>
<g>
</g>
<g>
</g>
<g>
</g>
<g>
</g>
<g>
</g>
<g>
</g>
<g>
</g>
<g>
</g>
</svg>
