<svg id="Capa_1" enable-background="new 0 0 510 510" height="512" viewBox="0 0 510 510" width="512" xmlns="http://www.w3.org/2000/svg"><g><path d="m435.312 74.688c-48.163-48.164-112.199-74.688-180.312-74.688s-132.149 26.524-180.312 74.688c-48.164 48.163-74.688 112.199-74.688 180.312s26.524 132.149 74.688 180.313c48.163 48.163 112.199 74.687 180.312 74.687s132.149-26.524 180.312-74.688c48.164-48.163 74.688-112.199 74.688-180.312s-26.524-132.149-74.688-180.312zm-180.312-44.688c124.065 0 225 100.935 225 225 0 40.203-10.609 77.97-29.159 110.667l-98.518-56.837c1.349-7.765 2.197-15.734 2.521-23.83h20.854l36.352 22.72 15.9-25.439-43.648-27.281h-29.302v-25.375l35-20.192v-74.433h-30v57.106l-30 17.307v-14.947c0-32.11-25.585-58.339-57.437-59.414 6.177-17.486 22.863-30.052 42.437-30.052v-30c-24.508 0-46.305 11.818-60 30.052-13.695-18.234-35.492-30.052-60-30.052v30c19.574 0 36.26 12.566 42.437 30.052-31.852 1.074-57.437 27.304-57.437 59.414v14.947l-2.438-1.407-27.562-15.901v-57.105h-30v39.798l-58.825-33.938c39.188-66.294 111.394-110.86 193.825-110.86zm15.535 135c16.247 0 29.465 13.219 29.465 29.466v20.534h-90v-20.534c0-16.247 13.218-29.466 29.465-29.466zm53.725 127.64-82.576-47.64h83.316v32.5c0 5.117-.258 10.17-.74 15.14zm-139.26-15.14v-30.567l132.833 76.634c-3.672 11.088-8.701 21.268-14.969 30.115-13.163 18.584-30.162 28.818-47.864 28.818s-34.701-10.234-47.864-28.817c-14.275-20.153-22.136-47.208-22.136-76.183zm70 202.5c-124.065 0-225-100.935-225-225 0-30.947 6.282-60.454 17.636-87.316l107.364 61.941v25.375h-29.302l-43.648 27.28 15.9 25.439 36.352-22.719h20.854c.342 8.544 1.265 16.947 2.747 25.117l-37.903 21.057v58.826h30v-41.174l16.155-8.975c4.326 11.295 9.857 21.792 16.501 31.172 18.945 26.747 44.637 41.477 72.344 41.477s53.399-14.73 72.344-41.477c6.644-9.38 12.175-19.877 16.501-31.172l16.155 8.975v41.174h30v-24.798l44.302 25.559c-41.124 54.18-106.192 89.239-179.302 89.239z"/></g></svg>