<svg xmlns="http://www.w3.org/2000/svg" viewBox="0 0 50 50"><path d="M 40.90625 0 C 41.183594 0.742188 41.722656 2.085938 41.71875 3.15625 C 40.40625 2.683594 38.96875 2.445313 37.46875 2.5 C 35.058594 2.542969 32.808594 3.320313 31 4.59375 C 30.46875 3.4375 30 1.984375 30 1 C 27.660156 3.339844 27.757813 6.300781 28 7.84375 C 27.171875 9.242188 26.6875 10.820313 26.6875 12.5 C 26.6875 15.335938 28.007813 17.828125 30.09375 19.5625 C 28.890625 22.523438 29.921875 24.847656 30.5 25.96875 C 30.183594 26.410156 29.84375 26.84375 29.59375 27.34375 C 29.234375 28.066406 29.214844 28.753906 29.15625 29.4375 C 27.859375 29.804688 26.617188 30.386719 25.6875 31.40625 C 25.683594 31.410156 25.691406 31.433594 25.6875 31.4375 C 25.492188 31.632813 25.355469 31.890625 25.1875 32.125 C 23.921875 31.804688 22.636719 31.777344 21.40625 32.15625 C 21.394531 32.15625 21.386719 32.15625 21.375 32.15625 C 20.613281 32.410156 20.023438 32.949219 19.40625 33.46875 C 18.605469 32.960938 17.707031 32.507813 16.6875 32.40625 C 15.753906 32.3125 14.773438 32.527344 13.84375 32.9375 C 13.148438 32.195313 12.308594 31.625 11.375 31.34375 C 11.363281 31.34375 11.355469 31.34375 11.34375 31.34375 C 10.636719 31.167969 10.027344 31.308594 9.40625 31.40625 C 9.089844 30.789063 8.671875 30.226563 8 29.84375 C 8 29.832031 8 29.824219 8 29.8125 C 7.070313 29.296875 6.1875 29.296875 5.4375 29.4375 C 5.222656 29.195313 5.066406 28.9375 4.75 28.6875 C 4.191406 28.246094 3.476563 27.820313 2.625 27.625 C 2.339844 27.566406 2.042969 27.632813 1.8125 27.8125 C 1.1875 28.28125 0.796875 28.925781 0.5 29.59375 C 0.203125 30.261719 0 30.921875 0 31.59375 C 0 32.816406 0.347656 33.722656 0.71875 34.3125 C 0.84375 34.507813 0.96875 34.671875 1.09375 34.8125 C 1.148438 35.601563 1.332031 36.390625 1.59375 37.125 C 1.941406 38.101563 2.464844 38.992188 3.15625 39.6875 C 3.675781 40.207031 4.332031 40.632813 5.0625 40.8125 C 5.308594 41.28125 5.605469 41.722656 5.9375 42.125 C 7.527344 44.058594 9.96875 45.347656 12.375 45.15625 C 12.566406 45.332031 12.761719 45.496094 12.96875 45.65625 C 15.128906 47.328125 18.175781 48.125 21.21875 47.09375 C 22.3125 47.644531 23.613281 48 25.09375 48 C 27.433594 48 30.320313 47.480469 33.1875 45.6875 C 33.597656 45.742188 34.015625 45.777344 34.4375 45.78125 C 38.355469 45.820313 42.535156 43.429688 45.0625 37.5 C 45.773438 37.003906 46.429688 36.390625 46.96875 35.59375 C 48.242188 33.710938 48.851563 31.007813 48.5 27.28125 C 49.460938 25.976563 50.050781 24.402344 50 22.59375 C 50 22.585938 50 22.570313 50 22.5625 C 49.996094 21.558594 49.730469 20.3125 49.21875 19.03125 C 48.792969 17.96875 48.183594 16.917969 47.375 16.0625 C 47.984375 14.824219 48.3125 13.449219 48.3125 12 C 48.3125 9.113281 46.894531 6.550781 44.6875 4.8125 C 44.472656 3.917969 43.621094 1.019531 40.90625 0 Z M 37.53125 4.5 C 39.332031 4.433594 40.992188 4.878906 42.375 5.65625 C 42.28125 5.640625 42.179688 5.59375 42.09375 5.59375 C 41.195313 5.59375 41.199219 6.699219 42 8 C 42.800781 9.300781 44.292969 10.3125 45.09375 10.3125 C 45.617188 10.3125 45.816406 9.914063 45.75 9.34375 C 46.105469 10.175781 46.3125 11.066406 46.3125 12 C 46.3125 16.300781 42.394531 19.910156 37.46875 20.09375 C 35.390625 20.132813 33.488281 19.570313 32 18.5625 C 31.925781 18.488281 31.84375 18.425781 31.75 18.375 C 29.859375 16.988281 28.6875 14.882813 28.6875 12.5 C 28.6875 8.3125 32.628906 4.589844 37.53125 4.5 Z M 33.84375 6.84375 C 32.820313 6.84375 31.695313 7.5625 31.09375 8.6875 C 30.292969 10.1875 30.613281 11.992188 31.8125 12.59375 C 33.011719 13.292969 34.699219 12.5 35.5 11 C 36.300781 9.5 36.011719 7.695313 34.8125 7.09375 C 34.511719 6.917969 34.183594 6.84375 33.84375 6.84375 Z M 46.21875 17.8125 C 46.652344 18.378906 47.054688 19.054688 47.34375 19.78125 C 47.777344 20.867188 48 22.003906 48 22.59375 C 48 22.605469 48 22.613281 48 22.625 C 48.085938 25.242188 46.484375 27.21875 44.21875 28.3125 C 41.953125 29.40625 39.074219 29.472656 36.96875 28.3125 C 36.652344 28.089844 36.238281 28.070313 35.898438 28.257813 C 35.5625 28.449219 35.367188 28.816406 35.394531 29.203125 C 35.421875 29.589844 35.671875 29.921875 36.03125 30.0625 C 38.824219 31.601563 42.285156 31.449219 45.09375 30.09375 C 45.617188 29.839844 46.121094 29.53125 46.59375 29.1875 C 46.605469 31.640625 46.085938 33.324219 45.3125 34.46875 C 44.9375 35.023438 44.488281 35.457031 44 35.8125 C 43.84375 35.871094 43.703125 35.96875 43.59375 36.09375 C 42.933594 36.488281 42.191406 36.753906 41.40625 36.90625 C 39.832031 37.214844 38.113281 37.089844 36.6875 36.8125 C 35.261719 36.535156 34.042969 36.003906 33.9375 35.9375 C 33.460938 35.644531 32.839844 35.789063 32.546875 36.265625 C 32.253906 36.738281 32.398438 37.363281 32.875 37.65625 C 33.570313 38.089844 34.710938 38.46875 36.3125 38.78125 C 37.914063 39.09375 39.875 39.253906 41.8125 38.875 C 41.949219 38.847656 42.082031 38.8125 42.21875 38.78125 C 40.011719 42.5625 37.160156 43.808594 34.46875 43.78125 C 31.285156 43.746094 28.25 41.699219 27.09375 39.34375 C 26.941406 39.011719 26.617188 38.785156 26.25 38.761719 C 25.886719 38.738281 25.535156 38.917969 25.339844 39.226563 C 25.144531 39.539063 25.132813 39.929688 25.3125 40.25 C 26.304688 42.269531 28.160156 43.945313 30.40625 44.90625 C 28.5 45.742188 26.664063 46 25.09375 46 C 23.832031 46 22.800781 45.667969 21.9375 45.1875 C 21.917969 45.175781 21.894531 45.164063 21.875 45.15625 C 21.867188 45.152344 21.851563 45.160156 21.84375 45.15625 C 21.824219 45.144531 21.800781 45.132813 21.78125 45.125 C 21.769531 45.117188 21.761719 45.101563 21.75 45.09375 C 21.730469 45.082031 21.707031 45.070313 21.6875 45.0625 C 21.140625 44.722656 20.667969 44.324219 20.25 43.875 C 19.136719 42.671875 18.492188 41.152344 18.28125 40.1875 C 18.191406 39.710938 17.769531 39.367188 17.28125 39.375 C 16.972656 39.375 16.679688 39.519531 16.492188 39.761719 C 16.300781 40.007813 16.234375 40.324219 16.3125 40.625 C 16.601563 41.960938 17.371094 43.726563 18.78125 45.25 C 18.871094 45.34375 18.96875 45.4375 19.0625 45.53125 C 17.246094 45.707031 15.53125 45.101563 14.1875 44.0625 C 13.925781 43.859375 13.695313 43.636719 13.46875 43.40625 C 13.449219 43.382813 13.429688 43.363281 13.40625 43.34375 C 12.105469 41.992188 11.390625 40.230469 11.59375 38.71875 C 11.640625 38.398438 11.527344 38.070313 11.292969 37.847656 C 11.054688 37.625 10.726563 37.53125 10.40625 37.59375 C 9.972656 37.675781 9.640625 38.03125 9.59375 38.46875 C 9.386719 40.019531 9.792969 41.558594 10.59375 42.9375 C 9.457031 42.59375 8.320313 41.871094 7.5 40.875 C 7.230469 40.546875 7.007813 40.207031 6.8125 39.84375 C 6.792969 39.59375 6.683594 39.359375 6.5 39.1875 C 6.042969 37.960938 6.078125 36.582031 6.875 35.1875 C 7.066406 34.863281 7.058594 34.457031 6.851563 34.140625 C 6.648438 33.824219 6.28125 33.648438 5.90625 33.6875 C 5.574219 33.722656 5.28125 33.921875 5.125 34.21875 C 4.417969 35.457031 4.171875 36.71875 4.25 37.9375 C 3.945313 37.542969 3.667969 37.03125 3.46875 36.46875 C 3.273438 35.917969 3.160156 35.328125 3.125 34.75 C 3.125 34.738281 3.125 34.730469 3.125 34.71875 C 3.125 34.699219 3.125 34.675781 3.125 34.65625 C 3.171875 34.480469 3.171875 34.300781 3.125 34.125 C 3.15625 33.359375 3.328125 32.664063 3.65625 32.15625 C 3.894531 31.824219 3.902344 31.382813 3.683594 31.039063 C 3.464844 30.695313 3.058594 30.519531 2.65625 30.59375 C 2.484375 30.625 2.320313 30.699219 2.1875 30.8125 C 2.230469 30.679688 2.253906 30.539063 2.3125 30.40625 C 2.429688 30.144531 2.578125 30.03125 2.71875 29.84375 C 2.992188 29.972656 3.269531 30.066406 3.5 30.25 C 3.890625 30.558594 4.210938 30.933594 4.25 31 C 4.496094 31.425781 5.011719 31.609375 5.46875 31.4375 C 5.648438 31.367188 6.425781 31.242188 7 31.5625 C 7.46875 31.832031 7.699219 32.179688 7.84375 32.6875 C 7.996094 33.210938 8.535156 33.515625 9.0625 33.375 C 9.652344 33.207031 10.273438 33.136719 10.84375 33.28125 C 11.632813 33.527344 12.332031 33.980469 12.78125 34.65625 C 13.085938 35.109375 13.699219 35.234375 14.15625 34.9375 C 14.828125 34.488281 15.703125 34.328125 16.5 34.40625 C 17.238281 34.480469 18.121094 34.886719 18.8125 35.40625 C 19.234375 35.710938 19.816406 35.644531 20.15625 35.25 C 20.617188 34.710938 21.257813 34.3125 22 34.0625 C 22.011719 34.058594 22.019531 34.066406 22.03125 34.0625 C 23.140625 33.726563 24.167969 33.710938 25.25 34.125 C 25.726563 34.308594 26.265625 34.109375 26.5 33.65625 C 26.640625 33.375 26.871094 33.035156 27.09375 32.8125 C 27.113281 32.804688 27.136719 32.792969 27.15625 32.78125 C 27.867188 31.988281 28.960938 31.457031 30.21875 31.1875 C 30.683594 31.082031 31.011719 30.664063 31 30.1875 C 31 29.472656 31.09375 28.871094 31.40625 28.25 C 31.667969 27.730469 32.015625 27.167969 32.375 26.71875 C 32.621094 26.40625 32.660156 25.976563 32.46875 25.625 C 32.011719 24.804688 30.972656 23.078125 31.78125 20.6875 C 33.464844 21.613281 35.429688 22.132813 37.53125 22.09375 C 41.078125 21.960938 44.242188 20.308594 46.21875 17.8125 Z"/></svg>
