<svg xmlns="http://www.w3.org/2000/svg" viewBox="0 0 32 32"><path d="M 18.34375 2.96875 C 18.34375 2.96875 17.445313 3.214844 16.625 3.96875 C 16.015625 4.53125 15.394531 5.410156 15.125 6.625 C 13.292969 5.070313 10.910156 7.351563 10 5 C 10 9.003906 13.160156 7.8125 15 7.8125 C 11.660156 8.484375 11.671875 10.464844 9 11 C 13.53125 13.40625 14.734375 10.882813 15.65625 8.40625 C 15.511719 9.375 14.394531 12.3125 18 14 C 19.042969 11.128906 17.753906 9.867188 16.78125 8.15625 C 18.332031 10.144531 20.226563 13.816406 24 11 C 21.789063 10.421875 21.683594 8.601563 18.9375 8.125 C 20.996094 8.210938 21.589844 8.765625 23 6 C 20.78125 7.148438 19.730469 4.601563 17.09375 7.28125 C 17.085938 7.285156 17.070313 7.277344 17.0625 7.28125 C 17.199219 6.335938 17.585938 5.789063 17.96875 5.4375 C 18.441406 5.003906 18.84375 4.90625 18.84375 4.90625 Z M 9.28125 6.8125 C 8.230469 7.066406 7.179688 7.460938 6.25 8.15625 C 4.097656 9.757813 3 12.40625 3 16 C 3 22.09375 5.902344 25.53125 8.96875 27.21875 C 12.035156 28.90625 15.179688 29 16 29 C 16.820313 29 19.964844 28.90625 23.03125 27.21875 C 26.097656 25.53125 29 22.09375 29 16 C 29 12.40625 27.902344 9.757813 25.75 8.15625 C 25.070313 7.648438 24.324219 7.292969 23.5625 7.03125 C 23.152344 7.761719 22.753906 8.320313 22.25 8.6875 C 22.269531 8.707031 22.292969 8.730469 22.3125 8.75 C 23.113281 8.949219 23.882813 9.273438 24.5625 9.78125 C 26.175781 10.984375 27 13.078125 27 16 C 27 21.484375 24.636719 24.050781 22.0625 25.46875 C 19.488281 26.886719 16.628906 27 16 27 C 15.371094 27 12.511719 26.886719 9.9375 25.46875 C 7.363281 24.050781 5 21.484375 5 16 C 5 13.078125 5.824219 10.988281 7.4375 9.78125 C 8.40625 9.058594 9.570313 8.707031 10.71875 8.5625 C 9.960938 8.164063 9.523438 7.535156 9.28125 6.8125 Z"/></svg>
